<svg width="140" height="50" viewBox="0 0 140 50" fill="none" xmlns="http://www.w3.org/2000/svg">
<path d="M30.812 30V21.74C30.812 21.236 30.9893 20.8067 31.344 20.452C31.6987 20.0973 32.128 19.92 32.632 19.92H39.058C39.562 19.92 39.9913 20.0973 40.346 20.452C40.71 20.8067 40.892 21.236 40.892 21.74V30H39.366V26.472H32.324V30H30.812ZM32.324 24.96H39.366V21.95C39.366 21.7447 39.3287 21.6093 39.254 21.544C39.1887 21.4693 39.0533 21.432 38.848 21.432H32.842C32.6367 21.432 32.4967 21.4693 32.422 21.544C32.3567 21.6093 32.324 21.7447 32.324 21.95V24.96ZM44.3071 30C43.8031 30 43.3738 29.8227 43.0191 29.468C42.6645 29.1133 42.4871 28.684 42.4871 28.18V21.74C42.4871 21.236 42.6645 20.8067 43.0191 20.452C43.3738 20.0973 43.8031 19.92 44.3071 19.92H50.7331C51.2465 19.92 51.6805 20.0973 52.0351 20.452C52.3898 20.8067 52.5671 21.236 52.5671 21.74V22.342H51.0411V21.95C51.0411 21.7447 51.0038 21.6093 50.9291 21.544C50.8638 21.4693 50.7285 21.432 50.5231 21.432H44.5171C44.3118 21.432 44.1718 21.4693 44.0971 21.544C44.0318 21.6093 43.9991 21.7447 43.9991 21.95V27.97C43.9991 28.1753 44.0318 28.3153 44.0971 28.39C44.1718 28.4553 44.3118 28.488 44.5171 28.488H50.5231C50.7285 28.488 50.8638 28.4553 50.9291 28.39C51.0038 28.3153 51.0411 28.1753 51.0411 27.97V25.996H48.6611V24.47H52.5671V28.18C52.5671 28.684 52.3898 29.1133 52.0351 29.468C51.6805 29.8227 51.2465 30 50.7331 30H44.3071ZM54.1362 30V19.92H63.3762V21.432H55.6622V24.19H61.8642V25.716H55.6622V28.488H63.3762V30H54.1362ZM64.827 30V19.92H66.633L73.381 27.956V19.92H74.907V30H73.101L66.339 21.95V30H64.827ZM78.2954 30C77.7914 30 77.3621 29.8227 77.0074 29.468C76.6527 29.1133 76.4754 28.684 76.4754 28.18V21.74C76.4754 21.236 76.6527 20.8067 77.0074 20.452C77.3621 20.0973 77.7914 19.92 78.2954 19.92H86.5274V21.432H78.5054C78.3001 21.432 78.1601 21.4693 78.0854 21.544C78.0201 21.6093 77.9874 21.7447 77.9874 21.95V27.97C77.9874 28.1753 78.0201 28.3153 78.0854 28.39C78.1601 28.4553 78.3001 28.488 78.5054 28.488H86.5274V30H78.2954ZM87.9311 30V19.92H89.4431V30H87.9311ZM91.0093 30V21.74C91.0093 21.236 91.1866 20.8067 91.5413 20.452C91.8959 20.0973 92.3253 19.92 92.8293 19.92H99.2553C99.7593 19.92 100.189 20.0973 100.543 20.452C100.907 20.8067 101.089 21.236 101.089 21.74V30H99.5633V26.472H92.5213V30H91.0093ZM92.5213 24.96H99.5633V21.95C99.5633 21.7447 99.5259 21.6093 99.4513 21.544C99.3859 21.4693 99.2506 21.432 99.0453 21.432H93.0393C92.8339 21.432 92.6939 21.4693 92.6193 21.544C92.5539 21.6093 92.5213 21.7447 92.5213 21.95V24.96ZM110.525 30V21.432H106.241V19.92H116.321V21.432H112.051V30H110.525ZM117.396 30V19.92H126.636V21.432H118.922V24.19H125.124V25.716H118.922V28.488H126.636V30H117.396ZM129.51 30C129.006 30 128.576 29.8227 128.222 29.468C127.867 29.1133 127.69 28.684 127.69 28.18V21.74C127.69 21.236 127.867 20.8067 128.222 20.452C128.576 20.0973 129.006 19.92 129.51 19.92H135.95C136.444 19.92 136.869 20.0973 137.224 20.452C137.588 20.8067 137.77 21.236 137.77 21.74V28.18C137.77 28.684 137.588 29.1133 137.224 29.468C136.869 29.8227 136.444 30 135.95 30H129.51ZM129.72 28.488H135.726C135.931 28.488 136.066 28.4553 136.132 28.39C136.206 28.3153 136.244 28.1753 136.244 27.97V21.95C136.244 21.7447 136.206 21.6093 136.132 21.544C136.066 21.4693 135.931 21.432 135.726 21.432H129.72C129.514 21.432 129.374 21.4693 129.3 21.544C129.234 21.6093 129.202 21.7447 129.202 21.95V27.97C129.202 28.1753 129.234 28.3153 129.3 28.39C129.374 28.4553 129.514 28.488 129.72 28.488Z" fill="#C4C4C4"/>
<path d="M6 14H22C22.2652 14 22.5196 14.1054 22.7071 14.2929C22.8946 14.4804 23 14.7348 23 15V19C23 19.2652 22.8946 19.5196 22.7071 19.7071C22.5196 19.8946 22.2652 20 22 20H6C5.73478 20 5.48043 19.8946 5.29289 19.7071C5.10536 19.5196 5 19.2652 5 19V15C5 14.7348 5.10536 14.4804 5.29289 14.2929C5.48043 14.1054 5.73478 14 6 14V14ZM6 22H22C22.2652 22 22.5196 22.1054 22.7071 22.2929C22.8946 22.4804 23 22.7348 23 23V23.67L20.5 22.56L14 25.44V28H6C5.73478 28 5.48043 27.8946 5.29289 27.7071C5.10536 27.5196 5 27.2652 5 27V23C5 22.7348 5.10536 22.4804 5.29289 22.2929C5.48043 22.1054 5.73478 22 6 22V22ZM6 30H14C14.06 32.25 15 34.4 16.46 36H6C5.73478 36 5.48043 35.8946 5.29289 35.7071C5.10536 35.5196 5 35.2652 5 35V31C5 30.7348 5.10536 30.4804 5.29289 30.2929C5.48043 30.1054 5.73478 30 6 30V30ZM11 18H12V16H11V18ZM11 26H12V24H11V26ZM11 34H12V32H11V34ZM7 16V18H9V16H7ZM7 24V26H9V24H7ZM7 32V34H9V32H7ZM20.5 25L25 27V30C25 32.78 23.08 35.37 20.5 36C17.92 35.37 16 32.78 16 30V27L20.5 25ZM20.5 26.94L18 28.06V30.72C18 32.26 19.07 33.7 20.5 34.06V26.94V26.94Z" fill="#C4C4C4"/>
</svg>
