<svg width="140" height="50" viewBox="0 0 140 50" fill="none" xmlns="http://www.w3.org/2000/svg">
<path d="M44.888 20.512L40.216 32H38.688L34.016 20.512H35.376C35.5253 20.512 35.6453 20.5493 35.736 20.624C35.832 20.6987 35.904 20.7947 35.952 20.912L39.056 28.72C39.1307 28.912 39.2027 29.1227 39.272 29.352C39.3467 29.5813 39.4133 29.8213 39.472 30.072C39.5253 29.8213 39.584 29.5813 39.648 29.352C39.712 29.1227 39.7813 28.912 39.856 28.72L42.952 20.912C42.9893 20.8053 43.056 20.712 43.152 20.632C43.2533 20.552 43.376 20.512 43.52 20.512H44.888ZM50.1675 27.032C50.1675 26.7227 50.1222 26.4373 50.0315 26.176C49.9462 25.9147 49.8182 25.688 49.6475 25.496C49.4768 25.304 49.2688 25.1547 49.0235 25.048C48.7782 24.9413 48.4955 24.888 48.1755 24.888C47.5195 24.888 47.0022 25.0773 46.6235 25.456C46.2502 25.8347 46.0128 26.36 45.9115 27.032H50.1675ZM51.4555 30.84C51.2635 31.064 51.0422 31.2587 50.7915 31.424C50.5408 31.584 50.2742 31.7147 49.9915 31.816C49.7088 31.9173 49.4155 31.992 49.1115 32.04C48.8128 32.088 48.5168 32.112 48.2235 32.112C47.6635 32.112 47.1435 32.0187 46.6635 31.832C46.1888 31.64 45.7755 31.3627 45.4235 31C45.0768 30.632 44.8048 30.1787 44.6075 29.64C44.4155 29.096 44.3195 28.472 44.3195 27.768C44.3195 27.2027 44.4075 26.6773 44.5835 26.192C44.7595 25.7013 45.0102 25.2747 45.3355 24.912C45.6662 24.5493 46.0688 24.264 46.5435 24.056C47.0182 23.848 47.5515 23.744 48.1435 23.744C48.6395 23.744 49.0955 23.8267 49.5115 23.992C49.9328 24.152 50.2955 24.3867 50.5995 24.696C50.9035 25.0053 51.1408 25.3867 51.3115 25.84C51.4875 26.2933 51.5755 26.8107 51.5755 27.392C51.5755 27.632 51.5488 27.7947 51.4955 27.88C51.4422 27.96 51.3435 28 51.1995 28H45.8715C45.8875 28.4853 45.9568 28.9093 46.0795 29.272C46.2022 29.6293 46.3702 29.928 46.5835 30.168C46.8022 30.408 47.0608 30.5867 47.3595 30.704C47.6582 30.8213 47.9915 30.88 48.3595 30.88C48.7062 30.88 49.0048 30.84 49.2555 30.76C49.5115 30.68 49.7302 30.5947 49.9115 30.504C50.0982 30.408 50.2528 30.32 50.3755 30.24C50.5035 30.16 50.6155 30.12 50.7115 30.12C50.8395 30.12 50.9382 30.168 51.0075 30.264L51.4555 30.84ZM54.7163 25C54.8923 24.8133 55.0763 24.6427 55.2683 24.488C55.4603 24.3333 55.6629 24.2027 55.8763 24.096C56.0949 23.984 56.3269 23.8987 56.5723 23.84C56.8229 23.776 57.0896 23.744 57.3723 23.744C57.8203 23.744 58.2123 23.8187 58.5483 23.968C58.8896 24.1173 59.1749 24.328 59.4043 24.6C59.6336 24.8667 59.8069 25.1893 59.9243 25.568C60.0416 25.9467 60.1003 26.3653 60.1003 26.824V32H58.5323V26.824C58.5323 26.2427 58.3989 25.792 58.1323 25.472C57.8656 25.1467 57.4576 24.984 56.9083 24.984C56.5083 24.984 56.1323 25.08 55.7803 25.272C55.4336 25.4587 55.1109 25.7147 54.8123 26.04V32H53.2523V23.872H54.1883C54.4069 23.872 54.5429 23.976 54.5963 24.184L54.7163 25ZM64.64 32.128C63.984 32.128 63.4773 31.944 63.12 31.576C62.768 31.208 62.592 30.6827 62.592 30V25.136H61.648C61.5573 25.136 61.48 25.1093 61.416 25.056C61.3573 24.9973 61.328 24.912 61.328 24.8V24.168L62.648 23.984L63 21.56C63.0213 21.4693 63.0613 21.4 63.12 21.352C63.184 21.2987 63.264 21.272 63.36 21.272H64.152V24H66.456V25.136H64.152V29.896C64.152 30.216 64.2293 30.456 64.384 30.616C64.544 30.7707 64.7467 30.848 64.992 30.848C65.136 30.848 65.2587 30.8293 65.36 30.792C65.4667 30.7547 65.5573 30.7147 65.632 30.672C65.7067 30.624 65.7707 30.5813 65.824 30.544C65.8773 30.5067 65.9253 30.488 65.968 30.488C66.0213 30.488 66.0613 30.5013 66.088 30.528C66.12 30.5493 66.152 30.5867 66.184 30.64L66.648 31.392C66.392 31.6267 66.088 31.808 65.736 31.936C65.384 32.064 65.0187 32.128 64.64 32.128ZM72.2609 28.392C71.6262 28.4133 71.0875 28.464 70.6449 28.544C70.2022 28.6187 69.8422 28.72 69.5649 28.848C69.2875 28.976 69.0875 29.128 68.9649 29.304C68.8422 29.4747 68.7809 29.6667 68.7809 29.88C68.7809 30.0827 68.8129 30.2587 68.8769 30.408C68.9462 30.552 69.0369 30.672 69.1489 30.768C69.2662 30.8587 69.4022 30.9253 69.5569 30.968C69.7115 31.0107 69.8795 31.032 70.0609 31.032C70.3009 31.032 70.5195 31.008 70.7169 30.96C70.9195 30.912 71.1089 30.8453 71.2849 30.76C71.4609 30.6693 71.6289 30.56 71.7889 30.432C71.9489 30.304 72.1062 30.1573 72.2609 29.992V28.392ZM67.6849 25.008C68.1382 24.576 68.6289 24.2533 69.1569 24.04C69.6902 23.8267 70.2742 23.72 70.9089 23.72C71.3729 23.72 71.7835 23.7973 72.1409 23.952C72.4982 24.1013 72.7995 24.312 73.0449 24.584C73.2902 24.856 73.4742 25.1813 73.5969 25.56C73.7249 25.9387 73.7889 26.3573 73.7889 26.816V32H73.0929C72.9382 32 72.8209 31.976 72.7409 31.928C72.6609 31.8747 72.5969 31.7787 72.5489 31.64L72.3809 30.928C72.1729 31.12 71.9675 31.2907 71.7649 31.44C71.5622 31.584 71.3489 31.7093 71.1249 31.816C70.9062 31.9173 70.6715 31.9947 70.4209 32.048C70.1702 32.1013 69.8929 32.128 69.5889 32.128C69.2689 32.128 68.9675 32.0853 68.6849 32C68.4075 31.9093 68.1649 31.7733 67.9569 31.592C67.7489 31.4107 67.5835 31.184 67.4609 30.912C67.3435 30.64 67.2849 30.3227 67.2849 29.96C67.2849 29.64 67.3702 29.3333 67.5409 29.04C67.7169 28.7413 67.9995 28.4747 68.3889 28.24C68.7835 28.0053 69.2955 27.8133 69.9249 27.664C70.5595 27.5147 71.3382 27.4293 72.2609 27.408V26.816C72.2609 26.2027 72.1302 25.744 71.8689 25.44C71.6075 25.136 71.2235 24.984 70.7169 24.984C70.3755 24.984 70.0875 25.0267 69.8529 25.112C69.6235 25.1973 69.4235 25.2933 69.2529 25.4C69.0875 25.5013 68.9409 25.5947 68.8129 25.68C68.6902 25.7653 68.5622 25.808 68.4289 25.808C68.3222 25.808 68.2289 25.7787 68.1489 25.72C68.0742 25.6613 68.0129 25.592 67.9649 25.512L67.6849 25.008ZM85.1641 25.84C84.9081 25.504 84.6308 25.2693 84.3321 25.136C84.0388 25.0027 83.7081 24.936 83.3401 24.936C82.6255 24.936 82.0708 25.1947 81.6761 25.712C81.2868 26.224 81.0921 26.9733 81.0921 27.96C81.0921 28.4773 81.1348 28.92 81.2201 29.288C81.3108 29.6507 81.4388 29.9493 81.6041 30.184C81.7748 30.4133 81.9828 30.584 82.2281 30.696C82.4735 30.8027 82.7508 30.856 83.0601 30.856C83.5135 30.856 83.9055 30.7547 84.2361 30.552C84.5668 30.3493 84.8761 30.064 85.1641 29.696V25.84ZM86.7321 20.192V32H85.7881C85.5695 32 85.4335 31.896 85.3801 31.688L85.2441 30.752C84.8975 31.1627 84.5028 31.4933 84.0601 31.744C83.6228 31.9893 83.1161 32.112 82.5401 32.112C82.0761 32.112 81.6548 32.0213 81.2761 31.84C80.9028 31.6587 80.5828 31.3947 80.3161 31.048C80.0495 30.696 79.8441 30.2613 79.7001 29.744C79.5561 29.2267 79.4841 28.632 79.4841 27.96C79.4841 27.3573 79.5641 26.7973 79.7241 26.28C79.8841 25.7627 80.1161 25.3147 80.4201 24.936C80.7241 24.5573 81.0921 24.2613 81.5241 24.048C81.9561 23.8293 82.4441 23.72 82.9881 23.72C83.4788 23.72 83.8948 23.8 84.2361 23.96C84.5828 24.12 84.8921 24.3467 85.1641 24.64V20.192H86.7321ZM94.2925 27.032C94.2925 26.7227 94.2472 26.4373 94.1565 26.176C94.0712 25.9147 93.9432 25.688 93.7725 25.496C93.6018 25.304 93.3938 25.1547 93.1485 25.048C92.9032 24.9413 92.6205 24.888 92.3005 24.888C91.6445 24.888 91.1272 25.0773 90.7485 25.456C90.3752 25.8347 90.1378 26.36 90.0365 27.032H94.2925ZM95.5805 30.84C95.3885 31.064 95.1672 31.2587 94.9165 31.424C94.6658 31.584 94.3992 31.7147 94.1165 31.816C93.8338 31.9173 93.5405 31.992 93.2365 32.04C92.9378 32.088 92.6418 32.112 92.3485 32.112C91.7885 32.112 91.2685 32.0187 90.7885 31.832C90.3138 31.64 89.9005 31.3627 89.5485 31C89.2018 30.632 88.9298 30.1787 88.7325 29.64C88.5405 29.096 88.4445 28.472 88.4445 27.768C88.4445 27.2027 88.5325 26.6773 88.7085 26.192C88.8845 25.7013 89.1352 25.2747 89.4605 24.912C89.7912 24.5493 90.1938 24.264 90.6685 24.056C91.1432 23.848 91.6765 23.744 92.2685 23.744C92.7645 23.744 93.2205 23.8267 93.6365 23.992C94.0578 24.152 94.4205 24.3867 94.7245 24.696C95.0285 25.0053 95.2658 25.3867 95.4365 25.84C95.6125 26.2933 95.7005 26.8107 95.7005 27.392C95.7005 27.632 95.6738 27.7947 95.6205 27.88C95.5672 27.96 95.4685 28 95.3245 28H89.9965C90.0125 28.4853 90.0818 28.9093 90.2045 29.272C90.3272 29.6293 90.4952 29.928 90.7085 30.168C90.9272 30.408 91.1858 30.5867 91.4845 30.704C91.7832 30.8213 92.1165 30.88 92.4845 30.88C92.8312 30.88 93.1298 30.84 93.3805 30.76C93.6365 30.68 93.8552 30.5947 94.0365 30.504C94.2232 30.408 94.3778 30.32 94.5005 30.24C94.6285 30.16 94.7405 30.12 94.8365 30.12C94.9645 30.12 95.0632 30.168 95.1325 30.264L95.5805 30.84ZM108.32 30.568V32H101.744V20.512H103.448V30.568H108.32ZM111.291 23.872V32H109.731V23.872H111.291ZM111.587 21.36C111.587 21.504 111.557 21.6427 111.499 21.776C111.44 21.904 111.36 22.0187 111.259 22.12C111.163 22.216 111.048 22.2933 110.914 22.352C110.781 22.4053 110.643 22.432 110.499 22.432C110.355 22.432 110.219 22.4053 110.091 22.352C109.963 22.2933 109.848 22.216 109.747 22.12C109.651 22.0187 109.573 21.904 109.515 21.776C109.461 21.6427 109.435 21.504 109.435 21.36C109.435 21.2107 109.461 21.072 109.515 20.944C109.573 20.8107 109.651 20.696 109.747 20.6C109.848 20.4987 109.963 20.4213 110.091 20.368C110.219 20.3093 110.355 20.28 110.499 20.28C110.643 20.28 110.781 20.3093 110.914 20.368C111.048 20.4213 111.163 20.4987 111.259 20.6C111.36 20.696 111.44 20.8107 111.499 20.944C111.557 21.072 111.587 21.2107 111.587 21.36ZM115.109 30C115.365 30.336 115.642 30.5707 115.941 30.704C116.24 30.8373 116.565 30.904 116.917 30.904C117.642 30.904 118.2 30.6453 118.589 30.128C118.984 29.6107 119.181 28.8293 119.181 27.784C119.181 26.8187 119.008 26.112 118.661 25.664C118.314 25.2107 117.824 24.984 117.189 24.984C116.741 24.984 116.352 25.0853 116.021 25.288C115.696 25.4907 115.392 25.7787 115.109 26.152V30ZM115.109 24.992C115.445 24.6187 115.826 24.3173 116.253 24.088C116.68 23.8587 117.165 23.744 117.709 23.744C118.184 23.744 118.61 23.8373 118.989 24.024C119.373 24.2053 119.698 24.4693 119.965 24.816C120.232 25.1573 120.437 25.5733 120.581 26.064C120.725 26.5547 120.797 27.1093 120.797 27.728C120.797 28.384 120.714 28.9813 120.549 29.52C120.389 30.0587 120.157 30.52 119.853 30.904C119.554 31.288 119.189 31.5867 118.757 31.8C118.325 32.008 117.84 32.112 117.301 32.112C117.04 32.112 116.8 32.0853 116.581 32.032C116.362 31.984 116.16 31.912 115.973 31.816C115.792 31.72 115.624 31.6027 115.469 31.464C115.314 31.3253 115.168 31.168 115.029 30.992L114.957 31.672C114.914 31.8907 114.781 32 114.557 32H113.549V20.192H115.109V24.992ZM124.006 25.432C124.267 24.8987 124.582 24.48 124.95 24.176C125.318 23.872 125.76 23.72 126.278 23.72C126.454 23.72 126.619 23.7413 126.774 23.784C126.934 23.8213 127.072 23.88 127.19 23.96L127.086 25.136C127.048 25.28 126.96 25.352 126.822 25.352C126.747 25.352 126.635 25.3387 126.486 25.312C126.336 25.28 126.176 25.264 126.006 25.264C125.755 25.264 125.534 25.3013 125.342 25.376C125.15 25.4453 124.976 25.552 124.822 25.696C124.672 25.8347 124.539 26.008 124.422 26.216C124.304 26.4187 124.195 26.6507 124.094 26.912V32H122.534V23.872H123.43C123.6 23.872 123.715 23.904 123.774 23.968C123.838 24.0267 123.883 24.1333 123.91 24.288L124.006 25.432ZM131.56 23.744C132.157 23.744 132.696 23.8427 133.176 24.04C133.661 24.232 134.072 24.512 134.408 24.88C134.749 25.2427 135.011 25.6827 135.192 26.2C135.373 26.712 135.464 27.288 135.464 27.928C135.464 28.568 135.373 29.1467 135.192 29.664C135.011 30.1813 134.749 30.6213 134.408 30.984C134.072 31.3467 133.661 31.6267 133.176 31.824C132.696 32.016 132.157 32.112 131.56 32.112C130.957 32.112 130.413 32.016 129.928 31.824C129.448 31.6267 129.037 31.3467 128.696 30.984C128.355 30.6213 128.091 30.1813 127.904 29.664C127.723 29.1467 127.632 28.568 127.632 27.928C127.632 27.288 127.723 26.712 127.904 26.2C128.091 25.6827 128.355 25.2427 128.696 24.88C129.037 24.512 129.448 24.232 129.928 24.04C130.413 23.8427 130.957 23.744 131.56 23.744ZM131.56 30.896C132.328 30.896 132.901 30.6373 133.28 30.12C133.659 29.6027 133.848 28.8747 133.848 27.936C133.848 26.9973 133.659 26.2693 133.28 25.752C132.901 25.2293 132.328 24.968 131.56 24.968C130.781 24.968 130.2 25.2293 129.816 25.752C129.437 26.2693 129.248 26.9973 129.248 27.936C129.248 28.8747 129.437 29.6027 129.816 30.12C130.2 30.6373 130.781 30.896 131.56 30.896Z" fill="black"/>
<path d="M6 16H12C13.0609 16 14.0783 16.4214 14.8284 17.1716C15.5786 17.9217 16 18.9391 16 20V34C16 33.2044 15.6839 32.4413 15.1213 31.8787C14.5587 31.3161 13.7956 31 13 31H6V16Z" stroke="black" stroke-width="2" stroke-linecap="round" stroke-linejoin="round"/>
<path d="M26 16H20C18.9391 16 17.9217 16.4214 17.1716 17.1716C16.4214 17.9217 16 18.9391 16 20V34C16 33.2044 16.3161 32.4413 16.8787 31.8787C17.4413 31.3161 18.2044 31 19 31H26V16Z" stroke="black" stroke-width="2" stroke-linecap="round" stroke-linejoin="round"/>
</svg>
